<?xml version="1.0" encoding="UTF-8" standalone="no"?><!DOCTYPE svg PUBLIC "-//W3C//DTD SVG 1.1//EN" "http://www.w3.org/Graphics/SVG/1.1/DTD/svg11.dtd"><svg width="32px" height="32px" version="1.1" xmlns="http://www.w3.org/2000/svg" xmlns:xlink="http://www.w3.org/1999/xlink" xml:space="preserve" xmlns:serif="http://www.serif.com/" style="fill-rule:evenodd;clip-rule:evenodd;stroke-linecap:round;stroke-linejoin:round;stroke-miterlimit:1.5;"><path d="M27.47,0C28.672,-0 29.824,0.477 30.673,1.327C31.523,2.176 32,3.328 32,4.53L32,27.47C32,28.672 31.523,29.824 30.673,30.673C29.824,31.523 28.672,32 27.47,32L4.53,32C3.328,32 2.176,31.523 1.327,30.673C0.477,29.824 -0,28.672 0,27.47L0,4.53C-0,3.328 0.477,2.176 1.327,1.327C2.176,0.477 3.328,-0 4.53,0L27.47,0Z" style="fill:rgb(203,156,242);"/><g transform="matrix(1,0,0,1,-0.167132,-1.27162)"><path d="M15.248,4.288C9.995,6.221 10.598,13.684 16.552,13.502C21.719,13.344 23.185,8.088 20.043,5.021C18.365,3.383 15.36,4.286 15.248,4.288Z" style="fill:none;stroke:rgb(33,26,29);stroke-width:0.78px;"/></g><path d="M13.247,11.369C8.598,11.932 3.931,15.365 4.204,16.394C4.452,17.331 5.714,17.63 6.429,17.764C8.403,18.134 8.221,17.28 12.422,14.954" style="fill:none;stroke:rgb(33,26,29);stroke-width:0.78px;"/><g transform="matrix(-1,0,0,1,33.1922,0)"><path d="M13.247,11.369C8.598,11.932 3.931,15.365 4.204,16.394C4.452,17.331 5.714,17.63 6.429,17.764C8.403,18.134 8.221,17.28 12.422,14.954" style="fill:none;stroke:black;stroke-width:0.78px;"/></g><path d="M12.564,14.9C11.941,15.929 12.321,16.085 9.969,20.924" style="fill:none;stroke:rgb(33,26,29);stroke-width:0.78px;"/><path d="M20.719,14.895C20.264,15.428 21.793,19.172 22.294,20.518" style="fill:none;stroke:rgb(33,26,29);stroke-width:0.78px;"/><path d="M10,20.924C10.177,21.032 17.617,21.621 22.294,20.518" style="fill:none;stroke:rgb(33,26,29);stroke-width:0.78px;"/><path d="M16.596,8.029C16.187,7.916 14.695,8.701 15.399,9.116C16.213,9.594 17.765,9.402 17.963,8.813C18.221,8.044 16.721,8.03 16.596,8.029Z" style="fill:rgb(33,26,29);stroke:rgb(33,26,29);stroke-width:0.5px;"/><path d="M14.135,9.705C14.3,10.221 15.936,10.824 16.923,10.805C18.362,10.777 19.178,10 19.401,9.828" style="fill:none;stroke:rgb(33,26,29);stroke-width:0.5px;"/><g transform="matrix(1,0,0,1,-0.0593442,0.301411)"><path d="M15.059,6.699L15.06,6.698" style="fill:none;stroke:rgb(33,26,29);stroke-width:1.04px;"/></g><g transform="matrix(1,0,0,1,0.242374,0.223429)"><path d="M18.258,6.781L18.251,6.777" style="fill:none;stroke:rgb(33,26,29);stroke-width:1.04px;"/></g><path d="M12.559,21.326C12.381,21.65 12.484,21.683 11.423,25.801C10.802,28.215 10.56,29.495 10.475,29.911" style="fill:none;stroke:rgb(33,26,29);stroke-width:1.04px;"/><path d="M16.688,21.341C17.467,25.533 17.279,25.559 18.308,29.703" style="fill:none;stroke:rgb(33,26,29);stroke-width:1.04px;"/><path d="M21.261,21.042C21.034,21.577 19.496,25.192 18.046,27.559" style="fill:none;stroke:rgb(33,26,29);stroke-width:1.04px;"/><path d="M10.46,30.009C9.068,30.302 7.393,32.573 7.583,33.772" style="fill:none;stroke:rgb(33,26,29);stroke-width:1.04px;"/><path d="M14.516,29.775C15.622,29.534 18.201,29.626 19.595,30.476C21.484,31.628 21.973,33.734 22.052,34.074" style="fill:none;stroke:rgb(33,26,29);stroke-width:1.04px;"/><path d="M18.246,27.451C18.67,27.501 22.443,28.195 19.654,30.543" style="fill:rgb(33,26,29);stroke:rgb(33,26,29);stroke-width:1.04px;"/><path d="M19.654,30.543C17.752,28.744 18.971,29.659 18.971,29.659L18.246,27.389" style="fill:none;stroke:rgb(33,26,29);stroke-width:1.04px;"/><g><g transform="matrix(1,0,0,1,0.392761,-0.264782)"><path d="M15.877,2.909C15.443,1.193 12.071,0.932 10.5,3.953M13,3.94C8.808,4.699 7.305,1.698 7.285,2.3C7.281,2.416 7.51,4.471 8.912,5.533C10.06,6.403 11.194,6.211 11.5,6.205M15.877,2.909C16.267,2.145 18.683,0.851 20.5,1.394C20.958,1.531 22.465,2.566 21,4.761M17.033,3.94C18.246,6.619 24.04,6.751 24.833,6.2C25.423,5.789 23.208,6.4 21,4.761M11.5,6.205C13.926,5.209 13.375,5.161 12.524,7.119C15.602,4.479 15.716,4.301 17.033,3.94" style="fill:rgb(33,26,29);stroke:rgb(33,26,29);stroke-width:1.04px;"/></g><path d="M14.602,2.162C12.174,2.497 11.019,5.796 12.937,5.568C14.906,5.333 16.51,3.112 17.922,3.468C18.019,3.493 20.475,4.954 20.364,3.609C20.248,2.189 13.397,2.171 13.269,2.166" style="fill:rgb(33,26,29);stroke:rgb(33,26,29);stroke-width:1.04px;"/></g></svg>